<svg width="100" height="100" viewBox="0 0 100 100" fill="none" xmlns="http://www.w3.org/2000/svg">
<path d="M5.30537 18.074C5.185 18.1296 5.07389 18.25 5.04611 18.3426C4.99056 18.5185 15.8424 48.5648 19.8702 59.3796C20.4628 60.9444 21.0646 62.6759 21.2128 63.2222C21.5461 64.3981 22.0183 65.4352 22.4165 65.824L22.7035 66.1111H26.2776C28.2498 66.1111 29.9535 66.0833 30.0646 66.0555C30.2961 65.9907 30.7591 64.9537 32.5461 60.4629C34.9628 54.3889 35.648 52.5 37.3794 47.2222C38.8702 42.6759 40.2776 38.5 40.6109 37.6481C40.6572 37.5277 41.148 38.8889 42.1757 42C43.8609 47.0648 44.6665 49.3611 46.3609 53.8889C47.398 56.6759 49.9535 63.1296 50.472 64.2963L50.6757 64.7592L50.8424 64.4259C51.222 63.6852 52.398 60 54.1202 54.1389L55.0183 51.1018L54.4813 49.4166C53.6387 46.7314 49.7961 35.5185 46.2683 25.4537C45.6294 23.6388 44.9813 21.6574 44.8146 21.0555C44.4535 19.7129 43.935 18.5555 43.5276 18.2129L43.222 17.9629H40.5183C38.4998 17.9629 37.7776 17.9907 37.6572 18.074C37.2591 18.3796 36.2498 21.1296 33.935 28.1944C29.8331 40.7685 26.5276 50.5463 26.3146 50.7592C26.2406 50.8333 16.5183 21.1111 16.2498 19.9629C16.0646 19.1481 15.7035 18.3888 15.398 18.1481C15.1665 17.9629 15.0461 17.9629 10.3331 17.9722C7.09241 17.9722 5.44426 18.0092 5.30537 18.074Z" fill="#181818"/>
<path d="M74.0187 18.0552C67.7594 18.4811 63.1946 20.7774 60.1391 25.0459C57.8335 28.2589 57.6576 33.9626 59.7409 37.6848C60.5372 39.12 61.9631 40.5922 63.5557 41.6478C64.1113 42.0182 64.6113 42.3145 64.6668 42.3145C64.7687 42.3145 65.7409 40.3978 65.7409 40.1941C65.7409 40.1385 65.7872 40.0922 65.852 40.0922C65.9076 40.0922 65.9354 40.0645 65.8983 40.0367C65.8705 40.0089 66.065 39.5367 66.3335 38.9996C66.6113 38.4533 67.0002 37.6293 67.2224 37.1756C67.4354 36.7126 67.6483 36.2682 67.6946 36.1848C67.7409 36.0922 67.7779 35.9811 67.7779 35.9348C67.7779 35.8793 67.9076 35.657 68.0557 35.4348C68.2131 35.2033 68.3335 34.9533 68.3335 34.87C68.3335 34.7867 68.3798 34.7219 68.4261 34.7219C68.6205 34.7219 68.5002 34.407 68.1576 34.0182C67.6391 33.4256 67.3983 32.8607 67.3428 32.083C67.2131 30.407 67.7872 29.0552 69.0465 28.0552C69.602 27.62 71.0094 26.9348 71.815 26.7126C72.2872 26.5737 72.3891 26.5089 72.5002 26.2589C72.565 26.1015 72.6946 25.8052 72.7872 25.6107C72.8891 25.407 72.9631 25.1756 72.9631 25.1015C72.9631 25.0182 73.0465 24.8515 73.1483 24.7219C73.2502 24.5922 73.3335 24.4441 73.3335 24.3793C73.3335 24.3237 73.3705 24.2589 73.4076 24.2404C73.4817 24.2126 73.9076 23.3515 74.4354 22.1756C74.602 21.8145 74.7687 21.4626 74.8242 21.3885C74.8705 21.3145 74.9354 21.1848 74.9631 21.1107C75.0372 20.9163 75.4631 19.9904 75.565 19.7959C75.6113 19.7033 75.6483 19.5737 75.6483 19.4996C75.6483 19.4256 75.6854 19.3515 75.7224 19.333C75.8428 19.2867 76.4076 18.1385 76.3428 18.0737C76.2502 17.9811 75.2224 17.9719 74.0187 18.0552Z" fill="#181818"/>
<path d="M74.7871 36.7221C74.75 36.7592 74.7222 36.8703 74.7222 36.9629C74.7222 37.0555 74.6852 37.1296 74.6296 37.1296C74.5834 37.1296 74.5371 37.2036 74.5371 37.287C74.5371 37.3796 74.3704 37.787 74.1667 38.1944C73.963 38.6018 73.7963 38.9721 73.7963 39.0092C73.7963 39.0555 73.7408 39.1481 73.6852 39.2129C73.4074 39.5184 73.3333 39.6295 73.3333 39.7129C73.3333 39.7684 73.1667 40.1573 72.963 40.5925C72.7593 41.0184 72.5926 41.4166 72.5926 41.4721C72.5926 41.5277 72.5556 41.574 72.5 41.574C72.4537 41.574 72.4074 41.6295 72.4074 41.6851C72.4074 41.7499 72.2408 42.1295 72.0463 42.5184C71.8426 42.9166 71.7037 43.2407 71.7222 43.2407C71.75 43.2407 71.6389 43.4721 71.4815 43.7407C71.3333 44.0184 71.2037 44.3055 71.2037 44.3795C71.2037 44.574 74.5185 45.1944 78.6945 45.787C80.6389 46.0647 81.2222 46.2499 82.8241 47.0647C83.7593 47.5462 84.0556 47.7592 84.6852 48.3795C85.7686 49.4444 85.8611 49.7314 85.8148 51.8055C85.7871 53.3147 85.7686 53.3981 85.5186 53.9351C84.8148 55.3981 82.963 56.5832 80.1389 57.3795C79.3519 57.6018 79.1482 57.6203 76.6574 57.6573C74.5185 57.6944 73.8056 57.6758 72.9722 57.5555C70.5093 57.1944 68.6296 56.3425 66.7685 54.7407C66.3519 54.3888 66.2963 54.361 66.2963 54.5277C66.2963 54.6388 66.2593 54.7221 66.2037 54.7221C66.1574 54.7221 66.1111 54.8055 66.1111 54.9073C66.1111 55.0092 66.0741 55.0925 66.0185 55.0925C65.9722 55.0925 65.9259 55.1758 65.9259 55.2684C65.9259 55.3703 65.8796 55.4629 65.8333 55.4814C65.7778 55.4999 65.7222 55.6018 65.7037 55.7129C65.6759 55.824 65.5185 56.2036 65.3426 56.5462C64.8333 57.5369 64.4445 58.3981 64.4445 58.5369C64.4445 58.611 64.3611 58.7592 64.25 58.8795C64.1482 58.9907 63.8889 59.4444 63.6944 59.8888C63.4907 60.3332 63.287 60.7592 63.2315 60.8332C63.1852 60.9073 63.1204 61.0369 63.0926 61.111C62.9537 61.4721 62.8426 61.7314 62.75 61.8981C62.3704 62.611 62.3704 62.611 62.5556 62.7499C64.5278 64.2221 67.7778 65.3332 71.7593 65.8981C73.4445 66.1388 78.9074 66.1388 80.5093 65.8981C85.1111 65.2036 88.463 63.6851 91.0186 61.1203C93.5926 58.5277 94.75 56.0184 94.9815 52.4999C95.4445 45.6481 92.1297 40.9258 85.1852 38.5833C83.213 37.9166 80.5185 37.3425 78.2871 37.1296C77.2315 37.0277 75.6019 36.8147 75.0926 36.7129C74.963 36.6851 74.8241 36.6851 74.7871 36.7221Z" fill="#181818"/>
<path d="M58.5648 53.7126C57.4259 54.3607 56.4814 54.9255 56.4814 54.9626C56.4814 54.9811 56.5833 55.2589 56.7037 55.5737C57.0277 56.4533 57.4907 57.3329 57.5926 57.2681C57.6481 57.2403 57.6851 57.1663 57.6851 57.12C57.6851 57.0644 57.7685 56.8514 57.8703 56.6477C57.9722 56.4348 58.0555 56.2033 58.0555 56.1385C58.0555 56.0737 58.1018 56.0181 58.1481 56.0181C58.2037 56.0181 58.2407 55.9626 58.2407 55.8977C58.2407 55.8422 58.324 55.6848 58.4259 55.5552C58.5277 55.4255 58.6111 55.2311 58.6111 55.1107C58.6111 54.9996 58.6574 54.907 58.7037 54.907C58.7592 54.907 58.7963 54.8237 58.7963 54.7218C58.7963 54.62 58.8425 54.5366 58.8888 54.5366C58.9444 54.5366 58.9814 54.4533 58.9814 54.3514C58.9814 54.1477 59.1296 53.8515 59.3796 53.5737C59.5462 53.3792 59.5833 53.2403 59.4722 53.2403C59.4259 53.2403 59.0277 53.4533 58.5648 53.7126Z" fill="#181818"/>
<path d="M36.666 68.796V69.7219H49.9068H63.1475V68.796V67.8701H49.9068H36.666V68.796Z" fill="#181818"/>
<path d="M31.2408 73.5185C29.389 73.7962 28.2964 74.9814 28.4538 76.5277C28.5464 77.4166 29.0927 78.1481 29.9631 78.5277C30.3427 78.6944 31.5927 78.9814 32.5464 79.1203C33.4075 79.2407 33.9816 79.6759 33.9816 80.2036C33.9816 80.6388 33.7871 80.9166 33.2964 81.1573C32.9168 81.3425 32.7038 81.3888 32.0927 81.3888C31.676 81.3888 31.1853 81.3425 30.9908 81.287C30.6483 81.1944 29.9353 80.5925 29.7408 80.2314C29.6482 80.0555 29.6297 80.0555 29.0094 80.3518C27.9816 80.8518 28.0001 80.824 28.2779 81.3703C28.4075 81.6203 28.7038 81.9999 28.9353 82.2036C29.7871 82.9536 30.676 83.1944 32.3705 83.1296C33.6668 83.0833 34.2871 82.8796 34.9353 82.3055C35.5742 81.7499 35.852 81.1111 35.852 80.2036C35.852 79.3425 35.6945 78.8981 35.2038 78.3981C34.5927 77.7592 33.9631 77.5185 32.3427 77.2777C30.8612 77.0555 30.3705 76.787 30.3705 76.2036C30.3705 75.6759 30.8705 75.2962 31.7038 75.1944L32.176 75.1388V74.3055C32.176 73.3518 32.1945 73.3703 31.2408 73.5185Z" fill="#181818"/>
<path d="M36.7308 73.4905C36.6938 73.5183 36.666 75.7128 36.666 78.3517V83.1479H37.6845H38.7031V79.3054V75.4628L40.2123 75.4442L41.7123 75.4165V74.4442V73.472L39.2494 73.4442C37.8975 73.435 36.7679 73.4535 36.7308 73.4905Z" fill="#181818"/>
<path d="M42.5649 73.4907C42.463 73.5833 42.4908 78.6759 42.5927 79.537C42.7686 80.9814 43.6019 82.2129 44.7964 82.7963C45.4075 83.0925 45.4445 83.1018 46.6667 83.1018C47.889 83.1018 47.9353 83.0925 48.5186 82.8055C49.639 82.2592 50.3056 81.5 50.6482 80.3888C50.8149 79.8425 50.8334 79.5185 50.8334 76.6111V73.4259H49.8612H48.889V76.5185V79.6111L48.6297 80.1018C48.2501 80.8333 47.7871 81.1296 46.926 81.1851C46.3612 81.2222 46.1575 81.1944 45.7593 81.0185C45.1945 80.7777 44.7686 80.3333 44.639 79.8425C44.5741 79.6296 44.5371 78.287 44.5371 76.4537V73.4259H43.5834C43.0556 73.4259 42.5927 73.4537 42.5649 73.4907Z" fill="#181818"/>
<path d="M51.685 74.3702L51.7128 75.3239L53.1943 75.3702C54.6017 75.4165 54.6943 75.4257 55.1109 75.6757C55.6109 75.9628 55.9257 76.3331 56.222 76.9998C56.3887 77.3609 56.4257 77.6202 56.4257 78.2868C56.4257 79.3146 56.1943 79.9072 55.5831 80.472C54.9443 81.0646 54.6757 81.1387 53.0832 81.185L51.6665 81.222V82.185V83.1479H53.0554C54.6109 83.1479 55.1943 83.0554 55.9257 82.685C56.6294 82.3239 57.1387 81.8609 57.6202 81.1294C58.2035 80.2498 58.4443 79.435 58.4443 78.2776C58.4535 76.7498 58.0554 75.722 57.0924 74.7683C55.9813 73.6572 55.3054 73.4257 53.1294 73.4257H51.6572L51.685 74.3702Z" fill="#181818"/>
<path d="M59.3236 73.4812C59.2866 73.5183 59.2588 74.9997 59.2588 76.7775V79.9998H60.3236H61.3884L61.3699 76.7312L61.3421 73.472L60.3606 73.4442C59.8236 73.4349 59.3606 73.4534 59.3236 73.4812Z" fill="#181818"/>
<path d="M65.8331 73.555C64.7868 73.7958 64.8053 73.7495 65.509 74.6384L66.1386 75.4161H66.9812C67.9349 75.4254 68.3794 75.5921 69.009 76.1939C69.6294 76.7773 69.7683 77.1384 69.7683 78.1939C69.7683 78.7032 69.7405 79.231 69.7035 79.3699C69.6386 79.5828 69.7127 79.7124 70.2405 80.3606C70.5738 80.7773 70.8886 81.1106 70.9349 81.1106C71.046 81.1106 71.4349 80.3884 71.6294 79.8143C71.8886 79.0365 71.8701 77.5458 71.5923 76.7402C71.1849 75.555 70.3238 74.5273 69.2775 73.9532C68.3886 73.4717 66.9349 73.305 65.8331 73.555Z" fill="#181818"/>
<path d="M63.3427 73.8518C63.1853 73.9814 63.0557 74.1296 63.0557 74.1851C63.0557 74.2592 69.7686 82.4444 70.2779 82.9907C70.426 83.1573 70.4446 83.1481 70.7316 82.9073C70.8983 82.7777 71.0186 82.611 71.0001 82.5462C70.9723 82.4351 63.7223 73.611 63.6575 73.611C63.639 73.611 63.5001 73.7222 63.3427 73.8518Z" fill="#181818"/>
<path d="M62.7964 75.7591C62.2316 76.6757 62.0186 78.1387 62.2686 79.3609C62.5741 80.8702 63.4538 82.0461 64.7779 82.7035C65.5464 83.0831 65.5927 83.0924 66.6853 83.1294C67.5464 83.1665 67.926 83.1387 68.389 83.0091C68.713 82.9257 69.0001 82.8146 69.0279 82.7776C69.0464 82.7405 68.7871 82.3702 68.4445 81.9535L67.8241 81.1942L67.4075 81.2313C66.8149 81.2961 65.9353 81.1387 65.5093 80.8794C64.5556 80.3239 64.139 79.5276 64.139 78.3331C64.139 77.898 64.1945 77.4257 64.2501 77.2776C64.3519 77.0368 64.3241 76.972 63.8519 76.398C63.5741 76.0554 63.2593 75.7035 63.1667 75.6109C62.9908 75.4628 62.9816 75.4628 62.7964 75.7591Z" fill="#181818"/>
</svg>
